<?xml version="1.0" standalone="no"?>
<!DOCTYPE svg PUBLIC "-//W3C//DTD SVG 20010904//EN"
 "http://www.w3.org/TR/2001/REC-SVG-20010904/DTD/svg10.dtd">
<svg version="1.0" xmlns="http://www.w3.org/2000/svg"
 width="573.000000pt" height="573.000000pt" viewBox="0 0 573.000000 573.000000"
 preserveAspectRatio="xMidYMid meet">
<metadata>
Created by potrace 1.14, written by Peter Selinger 2001-2017
</metadata>
<g transform="translate(0.000000,573.000000) scale(0.100000,-0.100000)"
fill="#000000" stroke="none">
<path d="M2669 5726 c-2 -2 -38 -6 -79 -10 -67 -5 -233 -29 -285 -40 -213 -45
-517 -144 -633 -205 -9 -5 -51 -26 -92 -46 -90 -45 -246 -135 -315 -183 -102
-71 -151 -107 -186 -136 -20 -17 -63 -53 -95 -81 -304 -258 -612 -681 -753
-1035 -13 -30 -29 -68 -36 -85 -45 -97 -136 -422 -150 -536 -4 -30 -8 -56 -10
-59 -1 -3 -6 -32 -10 -65 -4 -33 -10 -91 -15 -130 -8 -73 -5 -484 4 -545 3
-19 8 -55 11 -80 9 -71 24 -159 41 -235 9 -38 18 -81 21 -95 11 -61 82 -271
131 -390 75 -184 237 -475 328 -590 263 -331 449 -510 719 -690 44 -29 92 -61
107 -71 50 -34 273 -148 378 -193 213 -90 475 -164 695 -195 235 -33 617 -36
800 -6 17 3 45 7 63 10 17 3 49 8 70 11 100 13 437 108 527 149 17 7 55 23 85
35 60 24 281 134 320 160 14 10 57 37 95 61 474 294 890 789 1107 1319 84 204
160 474 183 650 3 25 8 52 10 60 26 101 26 615 0 760 -2 14 -7 45 -10 70 -3
25 -7 56 -10 70 -3 14 -10 48 -15 75 -17 84 -80 305 -112 390 -46 123 -58 150
-124 286 -250 510 -651 936 -1149 1221 -131 74 -311 162 -359 174 -15 3 -29
10 -32 15 -3 5 -12 9 -21 9 -8 0 -29 6 -46 14 -18 7 -66 23 -107 36 -41 12
-86 25 -100 30 -57 19 -236 55 -380 75 -25 4 -58 8 -75 11 -36 6 -491 14 -496
10z"/>
</g>
</svg>
